ffmpeg started on 2016-11-27 at 04:30:54
Report written to "Output/NVENCh264/results/ffmpeg/old_town_cross_2160p50llhq3000k.log"
Command line:
Tools/ffmpeg/ffmpeg -benchmark -y -i Input/y4m/old_town_cross_2160p50.y4m -c:v h264_nvenc -preset llhq -b:v 3000k -an Output/NVENCh264/encoded/old_town_cross_2160p50llhq3000k.mkv
ffmpeg version N-82227-gdb23fde Copyright (c) 2000-2016 the FFmpeg developers
  built with gcc 5.4.0 (Ubuntu 5.4.0-6ubuntu1~16.04.2) 20160609
  configuration: --prefix=/home/jaroslav/ffmpeg_build --pkg-config-flags=--static --extra-cflags=-I/home/jaroslav/ffmpeg_build/include --extra-ldflags=-L/home/jaroslav/ffmpeg_build/lib --bindir=/home/jaroslav/bin --enable-gpl --enable-libass --enable-libfdk-aac --enable-libfreetype --enable-libmp3lame --enable-libopus --enable-libtheora --enable-libvorbis --enable-libvpx --enable-libx264 --enable-libx265 --enable-nvenc --enable-libmfx --enable-libxvid --enable-libgsm --enable-libopencore-amrnb --enable-version3 --enable-nonfree
  libavutil      55. 35.100 / 55. 35.100
  libavcodec     57. 66.101 / 57. 66.101
  libavformat    57. 57.100 / 57. 57.100
  libavdevice    57.  2.100 / 57.  2.100
  libavfilter     6. 66.100 /  6. 66.100
  libswscale      4.  3.100 /  4.  3.100
  libswresample   2.  4.100 /  2.  4.100
  libpostproc    54.  2.100 / 54.  2.100
Input #0, yuv4mpegpipe, from 'Input/y4m/old_town_cross_2160p50.y4m':
  Duration: 00:00:10.00, start: 0.000000, bitrate: 4976642 kb/s
    Stream #0:0: Video: rawvideo (I420 / 0x30323449), yuv420p(progressive), 3840x2160, SAR 1:1 DAR 16:9, 50 fps, 50 tbr, 50 tbn, 50 tbc
[h264_nvenc @ 0x3c29120] The variable bitrate rate-control requires the 'qmin' and/or 'qmax' option set.
Output #0, matroska, to 'Output/NVENCh264/encoded/old_town_cross_2160p50llhq3000k.mkv':
  Metadata:
    encoder         : Lavf57.57.100
    Stream #0:0: Video: h264 (h264_nvenc) (Main) (H264 / 0x34363248), yuv420p, 3840x2160 [SAR 1:1 DAR 16:9], q=-1--1, 3000 kb/s, 50 fps, 1k tbn, 50 tbc
    Metadata:
      encoder         : Lavc57.66.101 h264_nvenc
    Side data:
      cpb: bitrate max/min/avg: 0/0/3000000 buffer size: 6000000 vbv_delay: -1
Stream mapping:
  Stream #0:0 -> #0:0 (rawvideo (native) -> h264 (h264_nvenc))
Press [q] to stop, [?] for help
frame=   20 fps=0.0 q=0.0 size=       0kB time=00:00:00.00 bitrate=N/A speed=   0x    frame=   38 fps= 36 q=47.0 size=       1kB time=00:00:00.14 bitrate=  42.4kbits/s speed=0.135x    frame=   56 fps= 36 q=49.0 size=       1kB time=00:00:00.50 bitrate=  11.9kbits/s speed=0.321x    frame=   74 fps= 36 q=49.0 size=       1kB time=00:00:00.86 bitrate=   6.9kbits/s speed=0.416x    frame=   92 fps= 36 q=40.0 size=       1kB time=00:00:01.22 bitrate=   4.9kbits/s speed=0.472x    frame=  110 fps= 35 q=39.0 size=       1kB time=00:00:01.58 bitrate=   3.8kbits/s speed=0.51x    frame=  128 fps= 35 q=44.0 size=       1kB time=00:00:01.94 bitrate=   3.1kbits/s speed=0.536x    frame=  146 fps= 35 q=37.0 size=       1kB time=00:00:02.30 bitrate=   2.6kbits/s speed=0.556x    frame=  164 fps= 35 q=40.0 size=       1kB time=00:00:02.66 bitrate=   2.2kbits/s speed=0.572x    frame=  182 fps= 35 q=44.0 size=       1kB time=00:00:03.02 bitrate=   2.0kbits/s speed=0.585x    frame=  200 fps= 35 q=38.0 size=       1kB time=00:00:03.38 bitrate=   1.8kbits/s speed=0.595x    frame=  218 fps= 35 q=38.0 size=       1kB time=00:00:03.74 bitrate=   1.6kbits/s speed=0.604x    frame=  234 fps= 35 q=44.0 size=       1kB time=00:00:04.06 bitrate=   1.5kbits/s speed=0.606x    frame=  244 fps= 34 q=39.0 size=       1kB time=00:00:04.26 bitrate=   1.4kbits/s speed=0.592x    frame=  262 fps= 34 q=40.0 size=       1kB time=00:00:04.62 bitrate=   1.3kbits/s speed=0.599x    frame=  280 fps= 34 q=37.0 size=       1kB time=00:00:04.98 bitrate=   1.2kbits/s speed=0.606x    frame=  291 fps= 33 q=44.0 size=    1777kB time=00:00:05.20 bitrate=2799.5kbits/s speed=0.595x    frame=  305 fps= 33 q=49.0 size=    1777kB time=00:00:05.48 bitrate=2656.5kbits/s speed=0.592x    frame=  318 fps= 33 q=49.0 size=    1777kB time=00:00:05.74 bitrate=2536.2kbits/s speed=0.588x    frame=  332 fps= 32 q=41.0 size=    1777kB time=00:00:06.02 bitrate=2418.2kbits/s speed=0.586x    frame=  346 fps= 32 q=38.0 size=    1777kB time=00:00:06.30 bitrate=2310.8kbits/s speed=0.583x    frame=  360 fps= 32 q=44.0 size=    1777kB time=00:00:06.58 bitrate=2212.5kbits/s speed=0.581x    frame=  374 fps= 32 q=44.0 size=    1777kB time=00:00:06.86 bitrate=2122.2kbits/s speed=0.58x    frame=  388 fps= 31 q=44.0 size=    1777kB time=00:00:07.14 bitrate=2039.0kbits/s speed=0.579x    frame=  397 fps= 31 q=38.0 size=    1777kB time=00:00:07.32 bitrate=1988.8kbits/s speed=0.57x    frame=  408 fps= 31 q=44.0 size=    1777kB time=00:00:07.54 bitrate=1930.8kbits/s speed=0.565x    frame=  423 fps= 31 q=44.0 size=    1777kB time=00:00:07.84 bitrate=1856.9kbits/s speed=0.565x    frame=  438 fps= 30 q=44.0 size=    1777kB time=00:00:08.14 bitrate=1788.5kbits/s speed=0.566x    frame=  453 fps= 30 q=46.0 size=    1777kB time=00:00:08.44 bitrate=1724.9kbits/s speed=0.567x    frame=  469 fps= 30 q=46.0 size=    1777kB time=00:00:08.76 bitrate=1661.9kbits/s speed=0.568x    frame=  480 fps= 30 q=41.0 size=    1777kB time=00:00:08.98 bitrate=1621.2kbits/s speed=0.563x    frame=  491 fps= 30 q=40.0 size=    1777kB time=00:00:09.20 bitrate=1582.5kbits/s speed=0.559x    frame=  498 fps= 29 q=38.0 size=    1777kB time=00:00:09.34 bitrate=1558.7kbits/s speed=0.549x    frame=  500 fps= 29 q=40.0 Lsize=    3598kB time=00:00:09.98 bitrate=2953.5kbits/s speed=0.582x    
video:3594kB audio:0kB subtitle:0kB other streams:0kB global headers:0kB muxing overhead: 0.120993%
bench: utime=1.160s
bench: maxrss=1420756kB
